<?xml version="1.0" encoding="utf-8"?>
<!-- Generator: Adobe Illustrator 28.3.0, SVG Export Plug-In . SVG Version: 6.00 Build 0)  -->
<svg width="527" height="141" version="1.1" id="Layer_1" xmlns="http://www.w3.org/2000/svg" xmlns:xlink="http://www.w3.org/1999/xlink" x="0px" y="0px"
	 viewBox="0 0 220 70" style="enable-background:new 0 0 220 70;" xml:space="preserve">
<style type="text/css">
	.st0{fill:#164991;}
	.st1{fill:#FFFFFF;}
	.st2{fill:#1F4281;}
	.st3{fill:#231F20;}
	.st4{fill:#EE8422;}
	.st5{fill:#FFFEFE;}
	.st6{fill:#010101;}
	.st7{fill:#1D479A;}
	.st8{fill:#EC2127;}
	.st9{fill:#E74225;}
</style>
<g>
	<path class="st0" d="M16.3,68.3c-0.7,0-1.5-0.1-2.3-0.3c-0.8-0.2-1.6-0.4-2.5-0.8l-0.4-0.2l0.4-5.8l0.9,0.6c0.7,0.5,1.4,0.8,2,1
		c0.6,0.2,1.2,0.3,1.7,0.3c0.6,0,1.1-0.2,1.4-0.5c0.3-0.4,0.5-0.9,0.5-1.6c0-1-0.9-2-2.6-3.2L15,57.6c-1.6-1.1-2.7-2.1-3.2-3.1
		c-0.5-1-0.8-2.3-0.8-3.9c0-2.3,0.6-4.2,1.8-5.6c1.2-1.4,2.9-2.1,5.1-2.1c0.6,0,1.3,0.1,2,0.2c0.7,0.1,1.4,0.3,2.1,0.6l0.4,0.2
		L22,49.7l-0.9-0.5c-0.6-0.3-1.2-0.6-1.7-0.8c-0.5-0.2-1-0.2-1.5-0.2c-0.6,0-1.1,0.1-1.4,0.4c-0.3,0.3-0.4,0.7-0.4,1.3
		c0,0.6,0.1,1,0.4,1.4c0.2,0.3,0.7,0.8,2,1.6c2,1.2,3.2,2.4,3.8,3.4c0.6,1.1,0.9,2.5,0.9,4.2c0,2.4-0.6,4.3-1.8,5.7
		C20.2,67.6,18.5,68.3,16.3,68.3"/>
	<path class="st1" d="M17.8,43.6c0.6,0,1.2,0.1,1.8,0.2c0.6,0.1,1.3,0.3,2,0.6l-0.2,4.2c-0.6-0.4-1.2-0.6-1.8-0.8
		c-0.6-0.2-1.1-0.3-1.7-0.3c-0.8,0-1.4,0.2-1.8,0.6c-0.4,0.4-0.6,1-0.6,1.8c0,0.7,0.2,1.3,0.5,1.8c0.4,0.5,1.1,1.1,2.2,1.8
		c1.9,1.2,3.1,2.2,3.6,3.2c0.5,1,0.8,2.3,0.8,3.8c0,2.2-0.6,4-1.7,5.3c-1.1,1.3-2.7,1.9-4.6,1.9c-0.7,0-1.4-0.1-2.1-0.3
		c-0.7-0.2-1.5-0.4-2.4-0.8l0.3-4.2c0.8,0.5,1.5,0.8,2.1,1.1c0.7,0.2,1.3,0.3,1.9,0.3c0.8,0,1.4-0.2,1.9-0.7c0.5-0.5,0.7-1.2,0.7-2
		c0-1.2-0.9-2.4-2.8-3.7c-0.2-0.2-0.4-0.3-0.5-0.3c-1.5-1-2.5-2-3-2.9c-0.5-0.9-0.8-2.1-0.8-3.6c0-2.2,0.5-3.9,1.6-5.1
		C14.3,44.2,15.9,43.6,17.8,43.6 M17.8,42.3c-2.3,0-4.2,0.8-5.5,2.3c-1.3,1.5-2,3.5-2,6c0,1.7,0.3,3.1,0.9,4.2
		c0.6,1.1,1.7,2.2,3.4,3.3l0.1,0.1l0.4,0.3c1.5,1,2.3,1.9,2.3,2.6c0,0.5-0.1,0.9-0.3,1.1c-0.1,0.1-0.4,0.3-1,0.3
		c-0.5,0-1-0.1-1.5-0.3c-0.6-0.2-1.2-0.5-1.9-0.9L11,60.2l-0.2,2.2l-0.3,4.2l-0.1,1l0.9,0.3c0.9,0.4,1.8,0.6,2.6,0.8
		c0.8,0.2,1.6,0.3,2.4,0.3c2.3,0,4.2-0.8,5.6-2.4c1.3-1.5,2-3.6,2-6.2c0-1.8-0.3-3.3-1-4.5c-0.7-1.2-2-2.4-4-3.7
		c-1.3-0.8-1.7-1.3-1.9-1.4c-0.2-0.3-0.3-0.6-0.3-1c0-0.6,0.2-0.8,0.3-0.8c0.2-0.2,0.5-0.3,0.9-0.3c0.4,0,0.8,0.1,1.3,0.2
		c0.5,0.2,1,0.4,1.6,0.7l1.8,1l0.1-2.1l0.2-4.2l0.1-1l-0.9-0.3c-0.8-0.3-1.5-0.5-2.2-0.6C19.2,42.4,18.5,42.3,17.8,42.3"/>
	<path class="st0" d="M28.9,68.3c-0.7,0-1.5-0.1-2.3-0.3c-0.8-0.2-1.6-0.4-2.5-0.8l-0.4-0.2l0.4-5.8l0.9,0.6c0.7,0.5,1.4,0.8,2,1
		c0.6,0.2,1.2,0.3,1.7,0.3c0.6,0,1.1-0.2,1.4-0.5c0.3-0.4,0.5-0.9,0.5-1.6c0-1-0.9-2-2.6-3.2l-0.5-0.3c-1.6-1.1-2.7-2.1-3.2-3.1
		c-0.5-1-0.8-2.3-0.8-3.9c0-2.3,0.6-4.2,1.8-5.6c1.2-1.4,2.9-2.1,5.1-2.1c0.6,0,1.3,0.1,2,0.2c0.7,0.1,1.4,0.3,2.1,0.6l0.4,0.2
		l-0.3,5.7l-0.9-0.5c-0.6-0.3-1.2-0.6-1.7-0.8c-0.5-0.2-1-0.2-1.5-0.2c-0.6,0-1.1,0.1-1.4,0.4c-0.3,0.3-0.4,0.7-0.4,1.3
		c0,0.6,0.1,1,0.4,1.4c0.2,0.3,0.7,0.8,2,1.6c2,1.2,3.2,2.4,3.8,3.4c0.6,1.1,0.9,2.5,0.9,4.2c0,2.4-0.6,4.3-1.8,5.7
		C32.8,67.6,31.1,68.3,28.9,68.3"/>
	<path class="st1" d="M30.4,43.6c0.6,0,1.2,0.1,1.8,0.2c0.6,0.1,1.3,0.3,2,0.6L34,48.6c-0.6-0.4-1.2-0.6-1.8-0.8
		c-0.6-0.2-1.1-0.3-1.7-0.3c-0.8,0-1.4,0.2-1.8,0.6c-0.4,0.4-0.6,1-0.6,1.8c0,0.7,0.2,1.3,0.5,1.8c0.4,0.5,1.1,1.1,2.2,1.8
		c1.9,1.2,3.1,2.2,3.6,3.2c0.5,1,0.8,2.3,0.8,3.8c0,2.2-0.6,4-1.7,5.3c-1.1,1.3-2.7,1.9-4.6,1.9c-0.7,0-1.4-0.1-2.1-0.3
		c-0.7-0.2-1.5-0.4-2.4-0.8l0.3-4.2c0.8,0.5,1.5,0.8,2.1,1.1c0.7,0.2,1.3,0.3,1.9,0.3c0.8,0,1.4-0.2,1.9-0.7c0.5-0.5,0.7-1.2,0.7-2
		c0-1.2-0.9-2.4-2.8-3.7c-0.2-0.2-0.4-0.3-0.5-0.3c-1.5-1-2.5-2-3-2.9c-0.5-0.9-0.8-2.1-0.8-3.6c0-2.2,0.6-3.9,1.6-5.1
		C26.9,44.2,28.5,43.6,30.4,43.6 M30.4,42.3c-2.3,0-4.2,0.8-5.5,2.3c-1.3,1.5-2,3.5-2,6c0,1.7,0.3,3.1,0.9,4.2
		c0.6,1.1,1.7,2.2,3.4,3.3l0.1,0.1l0.4,0.3c1.5,1,2.3,1.9,2.3,2.6c0,0.5-0.1,0.9-0.3,1.1c-0.1,0.1-0.4,0.3-1,0.3
		c-0.5,0-1-0.1-1.5-0.3c-0.6-0.2-1.2-0.5-1.9-0.9l-1.8-1.2l-0.2,2.2l-0.3,4.2l-0.1,1l0.9,0.3c0.9,0.4,1.8,0.6,2.6,0.8
		c0.8,0.2,1.6,0.3,2.4,0.3c2.3,0,4.2-0.8,5.6-2.4c1.3-1.5,2-3.6,2-6.2c0-1.8-0.3-3.3-1-4.5c-0.7-1.2-2-2.4-4-3.7
		c-1.3-0.8-1.7-1.3-1.9-1.4c-0.2-0.3-0.3-0.6-0.3-1c0-0.6,0.2-0.8,0.3-0.8c0.2-0.2,0.5-0.3,0.9-0.3c0.4,0,0.8,0.1,1.3,0.2
		c0.5,0.2,1,0.4,1.6,0.7l1.8,1l0.1-2.1l0.2-4.2l0.1-1l-0.9-0.3c-0.8-0.3-1.5-0.5-2.2-0.6C31.8,42.4,31.1,42.3,30.4,42.3"/>
	<polygon class="st0" points="46.2,68 42.6,59.7 42.6,68 37.3,68 37.3,43.4 42.6,43.4 42.6,50.7 46,43.4 52,43.4 46.3,54.9 52.5,68 
			"/>
	<path class="st1" d="M51,44l-5.4,10.8l5.8,12.5h-4.8L42,56.6v10.7h-4.1V44H42v9.6l4.5-9.6H51z M53.1,42.7H51h-4.5h-0.8l-0.3,0.7
		l-2,4.3V44v-1.3H42h-4.1h-1.3V44v23.3v1.3h1.3H42h1.3v-1.3v-4.4l2.1,5l0.3,0.8h0.9h4.8h2l-0.9-1.8L47,54.9l5.1-10.3L53.1,42.7z"/>
	<polygon class="st0" points="61.4,68 61.4,48.8 57.5,48.8 57.5,43.4 70.6,43.4 70.6,48.8 66.8,48.8 66.8,68 	"/>
	<path class="st1" d="M70,44v4.2h-3.9v19.1H62V48.2h-3.9V44H70z M71.3,42.7H70H58.1h-1.3V44v4.2v1.3h1.3h2.6v17.8v1.3H62h4.1h1.3
		v-1.3V49.5H70h1.3v-1.3V44V42.7z"/>
	<path class="st0" d="M80,68l-1.5-7.1c-0.3-1.4-0.6-1.9-0.7-2.1c-0.1-0.1-0.3-0.3-0.8-0.3h-0.1V68h-5.3V43.4h4.9c0.2,0,0.4,0,0.6,0
		c0.2,0,0.4,0,0.4,0c2.4,0,4.2,0.6,5.4,1.7c1.2,1.1,1.7,2.9,1.7,5.2c0,1.5-0.3,2.8-0.9,3.9c-0.4,0.7-1,1.3-1.7,1.7
		c0.2,0.2,0.3,0.3,0.4,0.5c0.4,0.6,0.7,1.5,1,2.9l2.2,8.7H80z M77.1,53.2c0.8,0,1.4-0.2,1.7-0.5c0.3-0.3,0.5-0.9,0.5-1.8
		c0-1.2-0.2-1.7-0.4-1.9c-0.3-0.3-0.9-0.5-1.7-0.5h-0.3v4.7H77.1z"/>
	<path class="st1" d="M77.4,44c2.3,0,3.9,0.5,4.9,1.5c1,1,1.5,2.6,1.5,4.8c0,1.4-0.3,2.6-0.9,3.5c-0.6,0.9-1.4,1.6-2.5,1.9
		c0.5,0.2,1,0.5,1.3,1c0.3,0.5,0.6,1.4,1,2.7l2,7.9h-4.2l-1.4-6.6c-0.3-1.2-0.5-2-0.8-2.4C78,58,77.6,57.8,77,57.8h-0.8v9.5h-4V44
		h4.2c0.2,0,0.4,0,0.7,0C77.3,44,77.4,44,77.4,44 M76.2,53.9h0.9c1,0,1.7-0.2,2.2-0.7c0.4-0.5,0.7-1.2,0.7-2.2
		c0-1.1-0.2-1.9-0.6-2.4c-0.4-0.5-1.1-0.7-2.2-0.7h-0.9V53.9 M77.4,42.7c0,0-0.2,0-0.4,0c-0.2,0-0.4,0-0.6,0h-4.2h-1.3V44v23.3v1.3
		h1.3h4h1.3v-1.3v-7.8c0.1,0.3,0.2,0.7,0.4,1.4l1.4,6.6l0.2,1h1h4.2h1.7L86,67l-2-7.9c-0.4-1.5-0.7-2.5-1.1-3.1c0,0,0,0,0-0.1
		c0.5-0.4,0.9-0.9,1.3-1.5c0.7-1.1,1-2.5,1-4.2c0-2.5-0.7-4.5-1.9-5.7C82,43.3,80,42.7,77.4,42.7 M77.5,52.6v-3.4
		c0.5,0,0.8,0.2,0.8,0.2c0,0,0.3,0.4,0.3,1.5c0,0.9-0.2,1.2-0.3,1.3C78.2,52.4,77.9,52.5,77.5,52.6"/>
	<path class="st0" d="M97.1,68l-1-5.2h-4.7L90.3,68H85l6.1-24.6h5.7l5.8,24.6H97.1z M95,57.4l-1.1-5.7l-1.3,5.7H95z"/>
	<path class="st1" d="M96.3,44l5.5,23.3h-4.2l-1-5.2h-5.7l-1.1,5.2h-4L91.6,44H96.3z M91.8,58.1h4l-1.9-9.5L91.8,58.1 M97.3,42.7h-1
		h-4.7h-1l-0.2,1L84.5,67l-0.4,1.6h1.7h4h1.1l0.2-1l0.9-4.2h3.6l0.8,4.2l0.2,1h1.1h4.2h1.6l-0.4-1.6l-5.5-23.3L97.3,42.7z
		 M93.4,56.8l0.4-1.9l0.4,1.9H93.4z"/>
	<path class="st0" d="M102.7,68V43.4h5.2c3.4,0,6,1,7.7,3.1c1.6,2,2.5,5.1,2.5,9.2c0,3.9-0.9,7-2.6,9.1c-1.7,2.1-4.3,3.2-7.6,3.2
		H102.7z M108.1,62.7c1.4,0,2.5-0.6,3.2-1.6c0.8-1.2,1.2-3,1.2-5.4c0-2.5-0.4-4.3-1.2-5.5c-0.7-1.1-1.7-1.6-3.2-1.6V62.7z"/>
	<path class="st1" d="M107.9,44c3.2,0,5.6,0.9,7.2,2.8c1.5,1.9,2.3,4.8,2.3,8.8c0,3.8-0.8,6.7-2.4,8.7c-1.6,2-4,3-7.1,3h-4.5V44
		H107.9 M107.5,63.4h0.5c1.7,0,3-0.6,3.8-1.9c0.9-1.3,1.3-3.2,1.3-5.8c0-2.6-0.4-4.6-1.3-5.9c-0.8-1.3-2.1-1.9-3.9-1.9h-0.5V63.4
		 M107.9,42.7h-4.5h-1.3V44v23.3v1.3h1.3h4.5c3.5,0,6.2-1.2,8.1-3.5c1.8-2.2,2.7-5.4,2.7-9.5c0-4.3-0.9-7.5-2.6-9.6
		C114.3,43.8,111.6,42.7,107.9,42.7 M108.8,62V49.3c0.9,0.1,1.5,0.6,2,1.3c0.7,1,1,2.8,1,5.1c0,2.3-0.4,4-1.1,5.1
		C110.3,61.5,109.6,61.9,108.8,62"/>
	<rect x="119.7" y="43.4" class="st0" width="5.4" height="24.6"/>
	<path class="st1" d="M124.4,67.3h-4.1V44h4.1V67.3z M125.7,42.7h-1.3h-4.1H119V44v23.3v1.3h1.3h4.1h1.3v-1.3V44V42.7z"/>
	<polygon class="st0" points="136.3,68 132.1,54.5 132.1,68 127.3,68 127.3,43.4 133.1,43.4 137.4,56.8 137.4,43.4 142.1,43.4 
		142.1,68 	"/>
	<path class="st1" d="M141.5,44v23.3h-4.7l-5.4-17v17h-3.5V44h4.7l5.4,17V44H141.5z M142.8,42.7h-1.3H138h-1.3V44v8.6l-2.8-9
		l-0.3-0.9h-0.9h-4.7h-1.3V44v23.3v1.3h1.3h3.5h1.3v-1.3v-8.6l2.9,9l0.3,0.9h0.9h4.7h1.3v-1.3V44V42.7z"/>
	<path class="st0" d="M152.9,68.3c-3,0-5.3-1.1-6.9-3.3c-1.6-2.1-2.4-5.2-2.4-9c0-4,0.9-7.2,2.5-9.5c1.7-2.3,4.2-3.5,7.3-3.5
		c0.8,0,1.7,0.1,2.4,0.2c0.8,0.2,1.6,0.4,2.3,0.7l0.4,0.2l-0.3,5.9l-1-0.7c-0.5-0.4-1.1-0.6-1.6-0.8c-0.6-0.2-1.2-0.3-1.9-0.3
		c-1.4,0-2.5,0.6-3.3,1.8c-0.8,1.3-1.3,3.2-1.3,5.6c0,2.5,0.4,4.4,1.1,5.7c0.7,1.2,1.6,1.8,2.8,1.8c0.2,0,0.4,0,0.6-0.1
		c0.1,0,0.2,0,0.3-0.1v-4.4h-2.3v-5.2h7.4v13.5l-0.3,0.2c-0.8,0.4-1.7,0.8-2.7,1C155,68.2,154,68.3,152.9,68.3"/>
	<path class="st1" d="M153.3,43.6c0.8,0,1.6,0.1,2.3,0.2c0.7,0.2,1.5,0.4,2.2,0.7l-0.3,4.2c-0.6-0.4-1.2-0.7-1.8-0.9
		c-0.6-0.2-1.3-0.3-2.1-0.3c-1.7,0-2.9,0.7-3.8,2.1c-0.9,1.4-1.4,3.4-1.4,6c0,2.6,0.4,4.6,1.2,6c0.8,1.4,1.9,2.1,3.3,2.1
		c0.2,0,0.5,0,0.7-0.1c0.2-0.1,0.5-0.2,0.8-0.3v-5.5h-2.3V54h6.1v12.5c-0.7,0.4-1.5,0.7-2.5,0.9c-0.9,0.2-1.9,0.3-3,0.3
		c-2.7,0-4.9-1-6.4-3.1c-1.5-2-2.3-4.9-2.3-8.6c0-3.9,0.8-7,2.4-9.1C148.2,44.7,150.4,43.6,153.3,43.6 M153.3,42.3
		c-3.3,0-5.9,1.3-7.8,3.8c-1.8,2.4-2.7,5.7-2.7,9.9c0,4,0.9,7.1,2.5,9.4c1.8,2.4,4.3,3.6,7.4,3.6c1.2,0,2.3-0.1,3.3-0.4
		c1.1-0.2,2-0.6,2.8-1.1l0.7-0.4v-0.8V54v-1.3h-1.3h-6.1h-1.3V54v3.9v1.3h1.3h1v3.3c-0.1,0-0.1,0-0.2,0c-1,0-1.7-0.4-2.2-1.4
		c-0.7-1.2-1-3-1-5.4c0-2.3,0.4-4.1,1.1-5.3c0.7-1,1.5-1.5,2.7-1.5c0.6,0,1.2,0.1,1.7,0.2c0.5,0.1,1,0.4,1.4,0.7l1.9,1.4l0.1-2.3
		l0.2-4.2l0.1-0.9l-0.8-0.4c-0.8-0.3-1.6-0.6-2.4-0.7C155.1,42.4,154.2,42.3,153.3,42.3"/>
	<polygon class="st0" points="175.7,68 174.6,58.9 173.5,68 168.8,68 166,49.5 170.2,49.5 171.3,57.9 172.3,49.5 177,49.5 178,58.1 
		179.1,49.5 183.1,49.5 180.4,68 	"/>
	<path class="st1" d="M182.3,50.2l-2.5,17.1h-3.5l-1.8-13.7L173,67.3h-3.6l-2.6-17.1h2.8l1.7,13l1.5-13h3.6l1.6,13l1.7-13H182.3z
		 M183.8,48.9h-1.5h-2.6h-1.1l-0.1,1.1l-0.4,2.9l-0.4-2.9l-0.1-1.1h-1.1h-3.6h-1.2l-0.1,1.1l-0.3,2.6l-0.4-2.7l-0.1-1.1h-1.1h-2.8
		h-1.5l0.2,1.5l2.6,17.1l0.2,1.1h1.1h3.6h1.2l0.1-1.1l0.4-3.2l0.4,3.3l0.1,1.1h1.1h3.5h1.1l0.2-1.1l2.5-17.1L183.8,48.9z"/>
	<rect x="181.7" y="63" class="st0" width="3.9" height="5"/>
	<path class="st1" d="M184.9,67.3h-2.6v-3.7h2.6V67.3z M186.2,62.3h-1.3h-2.6H181v1.3v3.7v1.3h1.3h2.6h1.3v-1.3v-3.7V62.3z"/>
	<polygon class="st0" points="186.8,68 186.8,49.5 191.1,49.5 191.1,63.5 195.4,63.5 195.4,68 	"/>
	<path class="st1" d="M190.4,50.2v14h4.3v3.1h-7.3V50.2H190.4z M191.7,48.9h-1.3h-3h-1.3v1.3v17.1v1.3h1.3h7.3h1.3v-1.3v-3.1v-1.3
		h-1.3h-3V50.2V48.9z"/>
	<rect x="195.4" y="63" class="st0" width="3.9" height="5"/>
	<path class="st1" d="M198.6,67.3H196v-3.7h2.6V67.3z M199.9,62.3h-1.3H196h-1.3v1.3v3.7v1.3h1.3h2.6h1.3v-1.3v-3.7V62.3z"/>
	<polygon class="st0" points="200.5,68 200.5,49.5 204.8,49.5 204.8,63.5 209,63.5 209,68 	"/>
	<path class="st1" d="M204.1,50.2v14h4.3v3.1h-7.3V50.2H204.1z M205.4,48.9h-1.3h-3h-1.3v1.3v17.1v1.3h1.3h7.3h1.3v-1.3v-3.1v-1.3
		h-1.3h-3V50.2V48.9z"/>
	<path class="st2" d="M76.8,36.3c-1.3,0-2.4-1.1-2.4-2.4V3.7c0-1.3,1.1-2.4,2.4-2.4h61.3c1.3,0,2.4,1.1,2.4,2.4v30.2
		c0,1.3-1.1,2.4-2.4,2.4H76.8z"/>
	<path class="st1" d="M138.1,1.6c1.2,0,2.1,0.9,2.1,2.1v30.2c0,1.2-0.9,2.1-2.1,2.1H76.8c-1.2,0-2.1-0.9-2.1-2.1V3.7
		c0-1.2,0.9-2.1,2.1-2.1H138.1 M138.1,1H76.8c-1.5,0-2.7,1.2-2.7,2.7v30.2c0,1.5,1.2,2.7,2.7,2.7h61.3c1.5,0,2.7-1.2,2.7-2.7V3.7
		C140.8,2.2,139.6,1,138.1,1"/>
	<path class="st3" d="M78.9,4.7v16.1l11.3,3.7v0.4v4.6h-7.7v-2.9h-4.2v7H95V20.8c-9.8-2-11.8-3.6-11.8-3.6V12
		c3.2,1.6,8.2,2.7,8.2,2.7v2.9H95v-5.7C87.7,10.5,81.9,7.9,78.9,4.7"/>
	<path class="st3" d="M97.9,12.3v13.2h12.4v4.9h-8.1v-2.3h-4.3v5.5h16.4V21.4h-11.8v-4.7h8.2v2.3h3.5v-6.3c-2.2,0.2-4.5,0.3-6.9,0.3
		C104.1,13,100.9,12.7,97.9,12.3"/>
	<path class="st3" d="M134.6,9.7V6.1c-1.6,1.2-3.6,2.3-6,3.3l-7,9.6v-7.5c-1.4,0.3-2.8,0.6-4.3,0.8v21.3h4.3v-8.6l0.9-0.7l8.6,9.3
		h6.2v-1.7l-10.9-11.8L134.6,9.7z"/>
	<path class="st1" d="M78.3,4.1v16.1l11.3,3.7v0.4v4.6h-7.7v-2.9h-4.2v7h16.7V20.2c-9.8-2-11.8-3.6-11.8-3.6v-5.3
		c3.2,1.6,8.2,2.7,8.2,2.7v2.9h3.6v-5.7C87,9.8,81.2,7.2,78.3,4.1"/>
	<path class="st1" d="M97.2,11.6v13.2h12.4v4.9h-8.1v-2.3h-4.3v5.5h16.4V20.7h-11.8v-4.7h8.2v2.3h3.5V12c-2.2,0.2-4.5,0.3-6.9,0.3
		C103.5,12.3,100.2,12.1,97.2,11.6"/>
	<path class="st1" d="M133.9,9V5.4c-1.6,1.2-3.6,2.3-6,3.3l-7,9.6v-7.5c-1.4,0.3-2.8,0.6-4.3,0.8v21.3h4.3v-8.6l0.9-0.7l8.6,9.3h6.2
		v-1.7l-10.9-11.8L133.9,9z"/>
	<path class="st0" d="M16.3,68.3c-0.7,0-1.5-0.1-2.3-0.3c-0.8-0.2-1.6-0.4-2.5-0.8l-0.4-0.2l0.4-5.8l0.9,0.6c0.7,0.5,1.4,0.8,2,1
		c0.6,0.2,1.2,0.3,1.7,0.3c0.6,0,1.1-0.2,1.4-0.5c0.3-0.4,0.5-0.9,0.5-1.6c0-1-0.9-2-2.6-3.2L15,57.6c-1.6-1.1-2.7-2.1-3.2-3.1
		c-0.5-1-0.8-2.3-0.8-3.9c0-2.3,0.6-4.2,1.8-5.6c1.2-1.4,2.9-2.1,5.1-2.1c0.6,0,1.3,0.1,2,0.2c0.7,0.1,1.4,0.3,2.1,0.6l0.4,0.2
		L22,49.7l-0.9-0.5c-0.6-0.3-1.2-0.6-1.7-0.8c-0.5-0.2-1-0.2-1.5-0.2c-0.6,0-1.1,0.1-1.4,0.4c-0.3,0.3-0.4,0.7-0.4,1.3
		c0,0.6,0.1,1,0.4,1.4c0.2,0.3,0.7,0.8,2,1.6c2,1.2,3.2,2.4,3.8,3.4c0.6,1.1,0.9,2.5,0.9,4.2c0,2.4-0.6,4.3-1.8,5.7
		C20.2,67.6,18.5,68.3,16.3,68.3"/>
	<path class="st1" d="M17.8,43.6c0.6,0,1.2,0.1,1.8,0.2c0.6,0.1,1.3,0.3,2,0.6l-0.2,4.2c-0.6-0.4-1.2-0.6-1.8-0.8
		c-0.6-0.2-1.1-0.3-1.7-0.3c-0.8,0-1.4,0.2-1.8,0.6c-0.4,0.4-0.6,1-0.6,1.8c0,0.7,0.2,1.3,0.5,1.8c0.4,0.5,1.1,1.1,2.2,1.8
		c1.9,1.2,3.1,2.2,3.6,3.2c0.5,1,0.8,2.3,0.8,3.8c0,2.2-0.6,4-1.7,5.3c-1.1,1.3-2.7,1.9-4.6,1.9c-0.7,0-1.4-0.1-2.1-0.3
		c-0.7-0.2-1.5-0.4-2.4-0.8l0.3-4.2c0.8,0.5,1.5,0.8,2.1,1.1c0.7,0.2,1.3,0.3,1.9,0.3c0.8,0,1.4-0.2,1.9-0.7c0.5-0.5,0.7-1.2,0.7-2
		c0-1.2-0.9-2.4-2.8-3.7c-0.2-0.2-0.4-0.3-0.5-0.3c-1.5-1-2.5-2-3-2.9c-0.5-0.9-0.8-2.1-0.8-3.6c0-2.2,0.5-3.9,1.6-5.1
		C14.3,44.2,15.9,43.6,17.8,43.6 M17.8,42.3c-2.3,0-4.2,0.8-5.5,2.3c-1.3,1.5-2,3.5-2,6c0,1.7,0.3,3.1,0.9,4.2
		c0.6,1.1,1.7,2.2,3.4,3.3l0.1,0.1l0.4,0.3c1.5,1,2.3,1.9,2.3,2.6c0,0.5-0.1,0.9-0.3,1.1c-0.1,0.1-0.4,0.3-1,0.3
		c-0.5,0-1-0.1-1.5-0.3c-0.6-0.2-1.2-0.5-1.9-0.9L11,60.2l-0.2,2.2l-0.3,4.2l-0.1,1l0.9,0.3c0.9,0.4,1.8,0.6,2.6,0.8
		c0.8,0.2,1.6,0.3,2.4,0.3c2.3,0,4.2-0.8,5.6-2.4c1.3-1.5,2-3.6,2-6.2c0-1.8-0.3-3.3-1-4.5c-0.7-1.2-2-2.4-4-3.7
		c-1.3-0.8-1.7-1.3-1.9-1.4c-0.2-0.3-0.3-0.6-0.3-1c0-0.6,0.2-0.8,0.3-0.8c0.2-0.2,0.5-0.3,0.9-0.3c0.4,0,0.8,0.1,1.3,0.2
		c0.5,0.2,1,0.4,1.6,0.7l1.8,1l0.1-2.1l0.2-4.2l0.1-1l-0.9-0.3c-0.8-0.3-1.5-0.5-2.2-0.6C19.2,42.4,18.5,42.3,17.8,42.3"/>
	<path class="st0" d="M28.9,68.3c-0.7,0-1.5-0.1-2.3-0.3c-0.8-0.2-1.6-0.4-2.5-0.8l-0.4-0.2l0.4-5.8l0.9,0.6c0.7,0.5,1.4,0.8,2,1
		c0.6,0.2,1.2,0.3,1.7,0.3c0.6,0,1.1-0.2,1.4-0.5c0.3-0.4,0.5-0.9,0.5-1.6c0-1-0.9-2-2.6-3.2l-0.5-0.3c-1.6-1.1-2.7-2.1-3.2-3.1
		c-0.5-1-0.8-2.3-0.8-3.9c0-2.3,0.6-4.2,1.8-5.6c1.2-1.4,2.9-2.1,5.1-2.1c0.6,0,1.3,0.1,2,0.2c0.7,0.1,1.4,0.3,2.1,0.6l0.4,0.2
		l-0.3,5.7l-0.9-0.5c-0.6-0.3-1.2-0.6-1.7-0.8c-0.5-0.2-1-0.2-1.5-0.2c-0.6,0-1.1,0.1-1.4,0.4c-0.3,0.3-0.4,0.7-0.4,1.3
		c0,0.6,0.1,1,0.4,1.4c0.2,0.3,0.7,0.8,2,1.6c2,1.2,3.2,2.4,3.8,3.4c0.6,1.1,0.9,2.5,0.9,4.2c0,2.4-0.6,4.3-1.8,5.7
		C32.8,67.6,31.1,68.3,28.9,68.3"/>
	<path class="st1" d="M30.4,43.6c0.6,0,1.2,0.1,1.8,0.2c0.6,0.1,1.3,0.3,2,0.6L34,48.6c-0.6-0.4-1.2-0.6-1.8-0.8
		c-0.6-0.2-1.1-0.3-1.7-0.3c-0.8,0-1.4,0.2-1.8,0.6c-0.4,0.4-0.6,1-0.6,1.8c0,0.7,0.2,1.3,0.5,1.8c0.4,0.5,1.1,1.1,2.2,1.8
		c1.9,1.2,3.1,2.2,3.6,3.2c0.5,1,0.8,2.3,0.8,3.8c0,2.2-0.6,4-1.7,5.3c-1.1,1.3-2.7,1.9-4.6,1.9c-0.7,0-1.4-0.1-2.1-0.3
		c-0.7-0.2-1.5-0.4-2.4-0.8l0.3-4.2c0.8,0.5,1.5,0.8,2.1,1.1c0.7,0.2,1.3,0.3,1.9,0.3c0.8,0,1.4-0.2,1.9-0.7c0.5-0.5,0.7-1.2,0.7-2
		c0-1.2-0.9-2.4-2.8-3.7c-0.2-0.2-0.4-0.3-0.5-0.3c-1.5-1-2.5-2-3-2.9c-0.5-0.9-0.8-2.1-0.8-3.6c0-2.2,0.6-3.9,1.6-5.1
		C26.9,44.2,28.5,43.6,30.4,43.6 M30.4,42.3c-2.3,0-4.2,0.8-5.5,2.3c-1.3,1.5-2,3.5-2,6c0,1.7,0.3,3.1,0.9,4.2
		c0.6,1.1,1.7,2.2,3.4,3.3l0.1,0.1l0.4,0.3c1.5,1,2.3,1.9,2.3,2.6c0,0.5-0.1,0.9-0.3,1.1c-0.1,0.1-0.4,0.3-1,0.3
		c-0.5,0-1-0.1-1.5-0.3c-0.6-0.2-1.2-0.5-1.9-0.9l-1.8-1.2l-0.2,2.2l-0.3,4.2l-0.1,1l0.9,0.3c0.9,0.4,1.8,0.6,2.6,0.8
		c0.8,0.2,1.6,0.3,2.4,0.3c2.3,0,4.2-0.8,5.6-2.4c1.3-1.5,2-3.6,2-6.2c0-1.8-0.3-3.3-1-4.5c-0.7-1.2-2-2.4-4-3.7
		c-1.3-0.8-1.7-1.3-1.9-1.4c-0.2-0.3-0.3-0.6-0.3-1c0-0.6,0.2-0.8,0.3-0.8c0.2-0.2,0.5-0.3,0.9-0.3c0.4,0,0.8,0.1,1.3,0.2
		c0.5,0.2,1,0.4,1.6,0.7l1.8,1l0.1-2.1l0.2-4.2l0.1-1l-0.9-0.3c-0.8-0.3-1.5-0.5-2.2-0.6C31.8,42.4,31.1,42.3,30.4,42.3"/>
	<polygon class="st0" points="46.2,68 42.6,59.7 42.6,68 37.3,68 37.3,43.4 42.6,43.4 42.6,50.7 46,43.4 52,43.4 46.3,54.9 52.5,68 
			"/>
	<path class="st1" d="M51,44l-5.4,10.8l5.8,12.5h-4.8L42,56.6v10.7h-4.1V44H42v9.6l4.5-9.6H51z M53.1,42.7H51h-4.5h-0.8l-0.3,0.7
		l-2,4.3V44v-1.3H42h-4.1h-1.3V44v23.3v1.3h1.3H42h1.3v-1.3v-4.4l2.1,5l0.3,0.8h0.9h4.8h2l-0.9-1.8L47,54.9l5.1-10.3L53.1,42.7z"/>
	<polygon class="st0" points="61.4,68 61.4,48.8 57.5,48.8 57.5,43.4 70.6,43.4 70.6,48.8 66.8,48.8 66.8,68 	"/>
	<path class="st1" d="M70,44v4.2h-3.9v19.1H62V48.2h-3.9V44H70z M71.3,42.7H70H58.1h-1.3V44v4.2v1.3h1.3h2.6v17.8v1.3H62h4.1h1.3
		v-1.3V49.5H70h1.3v-1.3V44V42.7z"/>
	<path class="st0" d="M80,68l-1.5-7.1c-0.3-1.4-0.6-1.9-0.7-2.1c-0.1-0.1-0.3-0.3-0.8-0.3h-0.1V68h-5.3V43.4h4.9c0.2,0,0.4,0,0.6,0
		c0.2,0,0.4,0,0.4,0c2.4,0,4.2,0.6,5.4,1.7c1.2,1.1,1.7,2.9,1.7,5.2c0,1.5-0.3,2.8-0.9,3.9c-0.4,0.7-1,1.3-1.7,1.7
		c0.2,0.2,0.3,0.3,0.4,0.5c0.4,0.6,0.7,1.5,1,2.9l2.2,8.7H80z M77.1,53.2c0.8,0,1.4-0.2,1.7-0.5c0.3-0.3,0.5-0.9,0.5-1.8
		c0-1.2-0.2-1.7-0.4-1.9c-0.3-0.3-0.9-0.5-1.7-0.5h-0.3v4.7H77.1z"/>
	<path class="st1" d="M77.4,44c2.3,0,3.9,0.5,4.9,1.5c1,1,1.5,2.6,1.5,4.8c0,1.4-0.3,2.6-0.9,3.5c-0.6,0.9-1.4,1.6-2.5,1.9
		c0.5,0.2,1,0.5,1.3,1c0.3,0.5,0.6,1.4,1,2.7l2,7.9h-4.2l-1.4-6.6c-0.3-1.2-0.5-2-0.8-2.4C78,58,77.6,57.8,77,57.8h-0.8v9.5h-4V44
		h4.2c0.2,0,0.4,0,0.7,0C77.3,44,77.4,44,77.4,44 M76.2,53.9h0.9c1,0,1.7-0.2,2.2-0.7c0.4-0.5,0.7-1.2,0.7-2.2
		c0-1.1-0.2-1.9-0.6-2.4c-0.4-0.5-1.1-0.7-2.2-0.7h-0.9V53.9 M77.4,42.7c0,0-0.2,0-0.4,0c-0.2,0-0.4,0-0.6,0h-4.2h-1.3V44v23.3v1.3
		h1.3h4h1.3v-1.3v-7.8c0.1,0.3,0.2,0.7,0.4,1.4l1.4,6.6l0.2,1h1h4.2h1.7L86,67l-2-7.9c-0.4-1.5-0.7-2.5-1.1-3.1c0,0,0,0,0-0.1
		c0.5-0.4,0.9-0.9,1.3-1.5c0.7-1.1,1-2.5,1-4.2c0-2.5-0.7-4.5-1.9-5.7C82,43.3,80,42.7,77.4,42.7 M77.5,52.6v-3.4
		c0.5,0,0.8,0.2,0.8,0.2c0,0,0.3,0.4,0.3,1.5c0,0.9-0.2,1.2-0.3,1.3C78.2,52.4,77.9,52.5,77.5,52.6"/>
	<path class="st0" d="M97.1,68l-1-5.2h-4.7L90.3,68H85l6.1-24.6h5.7l5.8,24.6H97.1z M95,57.4l-1.1-5.7l-1.3,5.7H95z"/>
	<path class="st1" d="M96.3,44l5.5,23.3h-4.2l-1-5.2h-5.7l-1.1,5.2h-4L91.6,44H96.3z M91.8,58.1h4l-1.9-9.5L91.8,58.1 M97.3,42.7h-1
		h-4.7h-1l-0.2,1L84.5,67l-0.4,1.6h1.7h4h1.1l0.2-1l0.9-4.2h3.6l0.8,4.2l0.2,1h1.1h4.2h1.6l-0.4-1.6l-5.5-23.3L97.3,42.7z
		 M93.4,56.8l0.4-1.9l0.4,1.9H93.4z"/>
	<path class="st0" d="M102.7,68V43.4h5.2c3.4,0,6,1,7.7,3.1c1.6,2,2.5,5.1,2.5,9.2c0,3.9-0.9,7-2.6,9.1c-1.7,2.1-4.3,3.2-7.6,3.2
		H102.7z M108.1,62.7c1.4,0,2.5-0.6,3.2-1.6c0.8-1.2,1.2-3,1.2-5.4c0-2.5-0.4-4.3-1.2-5.5c-0.7-1.1-1.7-1.6-3.2-1.6V62.7z"/>
	<path class="st1" d="M107.9,44c3.2,0,5.6,0.9,7.2,2.8c1.5,1.9,2.3,4.8,2.3,8.8c0,3.8-0.8,6.7-2.4,8.7c-1.6,2-4,3-7.1,3h-4.5V44
		H107.9 M107.5,63.4h0.5c1.7,0,3-0.6,3.8-1.9c0.9-1.3,1.3-3.2,1.3-5.8c0-2.6-0.4-4.6-1.3-5.9c-0.8-1.3-2.1-1.9-3.9-1.9h-0.5V63.4
		 M107.9,42.7h-4.5h-1.3V44v23.3v1.3h1.3h4.5c3.5,0,6.2-1.2,8.1-3.5c1.8-2.2,2.7-5.4,2.7-9.5c0-4.3-0.9-7.5-2.6-9.6
		C114.3,43.8,111.6,42.7,107.9,42.7 M108.8,62V49.3c0.9,0.1,1.5,0.6,2,1.3c0.7,1,1,2.8,1,5.1c0,2.3-0.4,4-1.1,5.1
		C110.3,61.5,109.6,61.9,108.8,62"/>
	<rect x="119.7" y="43.4" class="st0" width="5.4" height="24.6"/>
	<path class="st1" d="M124.4,67.3h-4.1V44h4.1V67.3z M125.7,42.7h-1.3h-4.1H119V44v23.3v1.3h1.3h4.1h1.3v-1.3V44V42.7z"/>
	<polygon class="st0" points="136.3,68 132.1,54.5 132.1,68 127.3,68 127.3,43.4 133.1,43.4 137.4,56.8 137.4,43.4 142.1,43.4 
		142.1,68 	"/>
	<path class="st1" d="M141.5,44v23.3h-4.7l-5.4-17v17h-3.5V44h4.7l5.4,17V44H141.5z M142.8,42.7h-1.3H138h-1.3V44v8.6l-2.8-9
		l-0.3-0.9h-0.9h-4.7h-1.3V44v23.3v1.3h1.3h3.5h1.3v-1.3v-8.6l2.9,9l0.3,0.9h0.9h4.7h1.3v-1.3V44V42.7z"/>
	<path class="st0" d="M152.9,68.3c-3,0-5.3-1.1-6.9-3.3c-1.6-2.1-2.4-5.2-2.4-9c0-4,0.9-7.2,2.5-9.5c1.7-2.3,4.2-3.5,7.3-3.5
		c0.8,0,1.7,0.1,2.4,0.2c0.8,0.2,1.6,0.4,2.3,0.7l0.4,0.2l-0.3,5.9l-1-0.7c-0.5-0.4-1.1-0.6-1.6-0.8c-0.6-0.2-1.2-0.3-1.9-0.3
		c-1.4,0-2.5,0.6-3.3,1.8c-0.8,1.3-1.3,3.2-1.3,5.6c0,2.5,0.4,4.4,1.1,5.7c0.7,1.2,1.6,1.8,2.8,1.8c0.2,0,0.4,0,0.6-0.1
		c0.1,0,0.2,0,0.3-0.1v-4.4h-2.3v-5.2h7.4v13.5l-0.3,0.2c-0.8,0.4-1.7,0.8-2.7,1C155,68.2,154,68.3,152.9,68.3"/>
	<path class="st1" d="M153.3,43.6c0.8,0,1.6,0.1,2.3,0.2c0.7,0.2,1.5,0.4,2.2,0.7l-0.3,4.2c-0.6-0.4-1.2-0.7-1.8-0.9
		c-0.6-0.2-1.3-0.3-2.1-0.3c-1.7,0-2.9,0.7-3.8,2.1c-0.9,1.4-1.4,3.4-1.4,6c0,2.6,0.4,4.6,1.2,6c0.8,1.4,1.9,2.1,3.3,2.1
		c0.2,0,0.5,0,0.7-0.1c0.2-0.1,0.5-0.2,0.8-0.3v-5.5h-2.3V54h6.1v12.5c-0.7,0.4-1.5,0.7-2.5,0.9c-0.9,0.2-1.9,0.3-3,0.3
		c-2.7,0-4.9-1-6.4-3.1c-1.5-2-2.3-4.9-2.3-8.6c0-3.9,0.8-7,2.4-9.1C148.2,44.7,150.4,43.6,153.3,43.6 M153.3,42.3
		c-3.3,0-5.9,1.3-7.8,3.8c-1.8,2.4-2.7,5.7-2.7,9.9c0,4,0.9,7.1,2.5,9.4c1.8,2.4,4.3,3.6,7.4,3.6c1.2,0,2.3-0.1,3.3-0.4
		c1.1-0.2,2-0.6,2.8-1.1l0.7-0.4v-0.8V54v-1.3h-1.3h-6.1h-1.3V54v3.9v1.3h1.3h1v3.3c-0.1,0-0.1,0-0.2,0c-1,0-1.7-0.4-2.2-1.4
		c-0.7-1.2-1-3-1-5.4c0-2.3,0.4-4.1,1.1-5.3c0.7-1,1.5-1.5,2.7-1.5c0.6,0,1.2,0.1,1.7,0.2c0.5,0.1,1,0.4,1.4,0.7l1.9,1.4l0.1-2.3
		l0.2-4.2l0.1-0.9l-0.8-0.4c-0.8-0.3-1.6-0.6-2.4-0.7C155.1,42.4,154.2,42.3,153.3,42.3"/>
	<polygon class="st0" points="175.7,68 174.6,58.9 173.5,68 168.8,68 166,49.5 170.2,49.5 171.3,57.9 172.3,49.5 177,49.5 178,58.1 
		179.1,49.5 183.1,49.5 180.4,68 	"/>
	<path class="st1" d="M182.3,50.2l-2.5,17.1h-3.5l-1.8-13.7L173,67.3h-3.6l-2.6-17.1h2.8l1.7,13l1.5-13h3.6l1.6,13l1.7-13H182.3z
		 M183.8,48.9h-1.5h-2.6h-1.1l-0.1,1.1l-0.4,2.9l-0.4-2.9l-0.1-1.1h-1.1h-3.6h-1.2l-0.1,1.1l-0.3,2.6l-0.4-2.7l-0.1-1.1h-1.1h-2.8
		h-1.5l0.2,1.5l2.6,17.1l0.2,1.1h1.1h3.6h1.2l0.1-1.1l0.4-3.2l0.4,3.3l0.1,1.1h1.1h3.5h1.1l0.2-1.1l2.5-17.1L183.8,48.9z"/>
	<rect x="181.7" y="63" class="st0" width="3.9" height="5"/>
	<path class="st1" d="M184.9,67.3h-2.6v-3.7h2.6V67.3z M186.2,62.3h-1.3h-2.6H181v1.3v3.7v1.3h1.3h2.6h1.3v-1.3v-3.7V62.3z"/>
	<polygon class="st0" points="186.8,68 186.8,49.5 191.1,49.5 191.1,63.5 195.4,63.5 195.4,68 	"/>
	<path class="st1" d="M190.4,50.2v14h4.3v3.1h-7.3V50.2H190.4z M191.7,48.9h-1.3h-3h-1.3v1.3v17.1v1.3h1.3h7.3h1.3v-1.3v-3.1v-1.3
		h-1.3h-3V50.2V48.9z"/>
	<rect x="195.4" y="63" class="st0" width="3.9" height="5"/>
	<path class="st1" d="M198.6,67.3H196v-3.7h2.6V67.3z M199.9,62.3h-1.3H196h-1.3v1.3v3.7v1.3h1.3h2.6h1.3v-1.3v-3.7V62.3z"/>
	<polygon class="st0" points="200.5,68 200.5,49.5 204.8,49.5 204.8,63.5 209,63.5 209,68 	"/>
	<path class="st1" d="M204.1,50.2v14h4.3v3.1h-7.3V50.2H204.1z M205.4,48.9h-1.3h-3h-1.3v1.3v17.1v1.3h1.3h7.3h1.3v-1.3v-3.1v-1.3
		h-1.3h-3V50.2V48.9z"/>
	<path class="st2" d="M76.8,36.3c-1.3,0-2.4-1.1-2.4-2.4V3.7c0-1.3,1.1-2.4,2.4-2.4h61.3c1.3,0,2.4,1.1,2.4,2.4v30.2
		c0,1.3-1.1,2.4-2.4,2.4H76.8z"/>
	<path class="st1" d="M138.1,1.6c1.2,0,2.1,0.9,2.1,2.1v30.2c0,1.2-0.9,2.1-2.1,2.1H76.8c-1.2,0-2.1-0.9-2.1-2.1V3.7
		c0-1.2,0.9-2.1,2.1-2.1H138.1 M138.1,1H76.8c-1.5,0-2.7,1.2-2.7,2.7v30.2c0,1.5,1.2,2.7,2.7,2.7h61.3c1.5,0,2.7-1.2,2.7-2.7V3.7
		C140.8,2.2,139.6,1,138.1,1"/>
	<path class="st3" d="M78.9,4.7v16.1l11.3,3.7v0.4v4.6h-7.7v-2.9h-4.2v7H95V20.8c-9.8-2-11.8-3.6-11.8-3.6V12
		c3.2,1.6,8.2,2.7,8.2,2.7v2.9H95v-5.7C87.7,10.5,81.9,7.9,78.9,4.7"/>
	<path class="st3" d="M97.9,12.3v13.2h12.4v4.9h-8.1v-2.3h-4.3v5.5h16.4V21.4h-11.8v-4.7h8.2v2.3h3.5v-6.3c-2.2,0.2-4.5,0.3-6.9,0.3
		C104.1,13,100.9,12.7,97.9,12.3"/>
	<path class="st3" d="M134.6,9.7V6.1c-1.6,1.2-3.6,2.3-6,3.3l-7,9.6v-7.5c-1.4,0.3-2.8,0.6-4.3,0.8v21.3h4.3v-8.6l0.9-0.7l8.6,9.3
		h6.2v-1.7l-10.9-11.8L134.6,9.7z"/>
	<path class="st1" d="M78.3,4.1v16.1l11.3,3.7v0.4v4.6h-7.7v-2.9h-4.2v7h16.7V20.2c-9.8-2-11.8-3.6-11.8-3.6v-5.3
		c3.2,1.6,8.2,2.7,8.2,2.7v2.9h3.6v-5.7C87,9.8,81.2,7.2,78.3,4.1"/>
	<path class="st1" d="M97.2,11.6v13.2h12.4v4.9h-8.1v-2.3h-4.3v5.5h16.4V20.7h-11.8v-4.7h8.2v2.3h3.5V12c-2.2,0.2-4.5,0.3-6.9,0.3
		C103.5,12.3,100.2,12.1,97.2,11.6"/>
	<path class="st1" d="M133.9,9V5.4c-1.6,1.2-3.6,2.3-6,3.3l-7,9.6v-7.5c-1.4,0.3-2.8,0.6-4.3,0.8v21.3h4.3v-8.6l0.9-0.7l8.6,9.3h6.2
		v-1.7l-10.9-11.8L133.9,9z"/>
</g>
</svg>
