<svg width="80" height="80" viewBox="0 0 80 80" fill="none" xmlns="http://www.w3.org/2000/svg">
<circle cx="40" cy="40" r="40" fill="url(#paint0_radial_623_3445)"/>
<path d="M20.5344 20.5206H37.6174C37.6174 20.5206 37.4759 23.3496 36.4786 24.7067C35.624 25.8695 34.2008 26.5671 34.2008 26.5671H21.4455C21.4455 26.5671 15.0679 27.7299 15.0679 34.2416C15.0679 40.2881 21.4455 41.6834 21.4455 41.6834H34.2008C34.2008 41.6834 35.9006 42.8682 36.4786 44.009C37.1375 45.3097 36.9341 47.7299 36.9341 47.7299H20.5344C20.5344 47.7299 8.91797 46.7997 8.91797 34.2416C8.91819 22.3811 20.5344 20.5206 20.5344 20.5206Z" fill="white"/>
<path d="M36.4773 32.3811H19.3943C19.3943 32.3811 19.5358 35.2101 20.5332 36.5672C21.3877 37.7299 22.8109 38.4276 22.8109 38.4276H35.5662C35.5662 38.4276 41.9439 39.5904 41.9439 46.102C41.9439 52.1485 35.5662 53.5439 35.5662 53.5439H22.8109C22.8109 53.5439 21.1111 54.7287 20.5332 55.8695C19.8742 57.1702 20.0776 59.5904 20.0776 59.5904H36.4773C36.4773 59.5904 48.0938 58.6602 48.0938 46.102C48.0935 34.2416 36.4773 32.3811 36.4773 32.3811Z" fill="#FFB419"/>
<path d="M45.5968 35.4118L59.33 21.6835C59.33 21.6835 60.5035 23.3902 60.8034 24.654C61.1305 26.0327 60.7505 28.2863 60.7505 28.2863L53.4618 36.0969L67.209 53.4585C67.209 53.4585 67.3436 55.1956 67.0808 56.2558C66.6873 57.843 64.9288 59.8264 64.9288 59.8264L45.5968 35.4118Z" fill="white"/>
<defs>
<radialGradient id="paint0_radial_623_3445" cx="0" cy="0" r="1" gradientUnits="userSpaceOnUse" gradientTransform="translate(45.5814 19.0698) rotate(95.2339) scale(61.1853)">
<stop stop-color="white"/>
<stop offset="0.16" stop-color="#98B8DE"/>
<stop offset="0.3" stop-color="#648CC7"/>
<stop offset="0.56" stop-color="#1360AE"/>
<stop offset="0.87" stop-color="#015AAA"/>
<stop offset="1" stop-color="#004C8F"/>
</radialGradient>
</defs>
</svg>
