<svg width="407" height="85" viewBox="0 0 407 85" fill="none" xmlns="http://www.w3.org/2000/svg">
<g clip-path="url(#clip0_38_18)">
<path d="M367 83C389.091 83 407 65.0914 407 43C407 20.9086 389.091 3 367 3C344.909 3 327 20.9086 327 43C327 65.0914 344.909 83 367 83Z" fill="url(#paint0_radial_38_18)"/>
<path d="M347.534 23.5205H364.617C364.617 23.5205 364.476 26.3495 363.479 27.7066C362.624 28.8694 361.201 29.567 361.201 29.567H348.445C348.445 29.567 342.068 30.7298 342.068 37.2415C342.068 43.288 348.445 44.6833 348.445 44.6833H361.201C361.201 44.6833 362.901 45.8681 363.479 47.0089C364.137 48.3096 363.934 50.7298 363.934 50.7298H347.534C347.534 50.7298 335.918 49.7996 335.918 37.2415C335.918 25.381 347.534 23.5205 347.534 23.5205Z" fill="white"/>
<path d="M363.478 35.3811H346.395C346.395 35.3811 346.536 38.2101 347.533 39.5672C348.388 40.7299 349.811 41.4276 349.811 41.4276H362.566C362.566 41.4276 368.944 42.5904 368.944 49.102C368.944 55.1485 362.566 56.5439 362.566 56.5439H349.811C349.811 56.5439 348.111 57.7287 347.533 58.8695C346.874 60.1702 347.078 62.5904 347.078 62.5904H363.478C363.478 62.5904 375.094 61.6602 375.094 49.102C375.094 37.2416 363.478 35.3811 363.478 35.3811Z" fill="#FFB419"/>
<path d="M372.597 38.4119L386.33 24.6836C386.33 24.6836 387.503 26.3903 387.803 27.6541C388.13 29.0328 387.75 31.2864 387.75 31.2864L380.462 39.097L394.209 56.4586C394.209 56.4586 394.343 58.1957 394.081 59.2559C393.687 60.8431 391.929 62.8265 391.929 62.8265L372.597 38.4119Z" fill="white"/>
</g>
<path d="M3.98153 56V29.8182H21.8537V34.9574H10.3097V40.3267H20.7159V45.4787H10.3097V56H3.98153ZM27.4339 56H20.6328L29.4666 29.8182H37.8913L46.7251 56H39.924L33.7749 36.4148H33.5703L27.4339 56ZM26.5263 45.696H40.7422V50.5028H26.5263V45.696ZM62.8874 37.6676C62.8022 36.7301 62.4229 36.0014 61.7496 35.4815C61.0849 34.9531 60.1346 34.6889 58.8988 34.6889C58.0806 34.6889 57.3988 34.7955 56.8533 35.0085C56.3079 35.2216 55.8988 35.5156 55.6261 35.8906C55.3533 36.2571 55.2127 36.679 55.2042 37.1562C55.1871 37.5483 55.2638 37.8935 55.4343 38.1918C55.6133 38.4901 55.869 38.7543 56.2014 38.9844C56.5423 39.206 56.9513 39.402 57.4286 39.5724C57.9059 39.7429 58.4428 39.892 59.0394 40.0199L61.2894 40.5312C62.5849 40.8125 63.7269 41.1875 64.7156 41.6562C65.7127 42.125 66.5479 42.6832 67.2212 43.331C67.9031 43.9787 68.4187 44.7244 68.7681 45.5682C69.1175 46.4119 69.2965 47.358 69.305 48.4062C69.2965 50.0597 68.8789 51.4787 68.0522 52.6634C67.2255 53.848 66.0366 54.7557 64.4854 55.3864C62.9428 56.017 61.0806 56.3324 58.8988 56.3324C56.7085 56.3324 54.7994 56.0043 53.1715 55.348C51.5437 54.6918 50.2781 53.6946 49.3746 52.3565C48.4712 51.0185 48.0067 49.3267 47.9812 47.2812H54.0408C54.092 48.125 54.3178 48.8281 54.7184 49.3906C55.119 49.9531 55.6687 50.3793 56.3675 50.669C57.0749 50.9588 57.8931 51.1037 58.8221 51.1037C59.6744 51.1037 60.3988 50.9886 60.9954 50.7585C61.6005 50.5284 62.065 50.2088 62.3889 49.7997C62.7127 49.3906 62.8789 48.9219 62.8874 48.3935C62.8789 47.8991 62.7255 47.4773 62.4272 47.1278C62.1289 46.7699 61.6687 46.4631 61.0465 46.2074C60.4329 45.9432 59.6488 45.7003 58.6942 45.4787L55.9585 44.8395C53.6914 44.3196 51.9059 43.4801 50.6019 42.321C49.2979 41.1534 48.6502 39.5767 48.6587 37.5909C48.6502 35.9716 49.0849 34.5526 49.9627 33.3338C50.8406 32.1151 52.055 31.1648 53.6062 30.483C55.1573 29.8011 56.9258 29.4602 58.9116 29.4602C60.94 29.4602 62.6999 29.8054 64.1914 30.4957C65.6914 31.1776 66.8548 32.1364 67.6815 33.3722C68.5082 34.608 68.93 36.0398 68.9471 37.6676H62.8874ZM72.5011 56V29.8182H78.8292V40.3267H89.146V29.8182H95.4613V56H89.146V45.4787H78.8292V56H72.5011ZM105.759 29.8182V56H99.4308V29.8182H105.759ZM134.443 42.9091C134.443 45.7898 133.889 48.2315 132.781 50.2344C131.673 52.2372 130.173 53.7585 128.281 54.7983C126.398 55.8381 124.284 56.358 121.94 56.358C119.588 56.358 117.47 55.8338 115.587 54.7855C113.703 53.7372 112.207 52.2159 111.099 50.2216C110 48.2187 109.45 45.7812 109.45 42.9091C109.45 40.0284 110 37.5866 111.099 35.5838C112.207 33.581 113.703 32.0597 115.587 31.0199C117.47 29.9801 119.588 29.4602 121.94 29.4602C124.284 29.4602 126.398 29.9801 128.281 31.0199C130.173 32.0597 131.673 33.581 132.781 35.5838C133.889 37.5866 134.443 40.0284 134.443 42.9091ZM127.974 42.9091C127.974 41.2045 127.732 39.7642 127.246 38.5881C126.768 37.4119 126.078 36.5213 125.175 35.9162C124.28 35.3111 123.202 35.0085 121.94 35.0085C120.688 35.0085 119.609 35.3111 118.706 35.9162C117.803 36.5213 117.108 37.4119 116.622 38.5881C116.145 39.7642 115.906 41.2045 115.906 42.9091C115.906 44.6136 116.145 46.054 116.622 47.2301C117.108 48.4062 117.803 49.2969 118.706 49.902C119.609 50.5071 120.688 50.8097 121.94 50.8097C123.202 50.8097 124.28 50.5071 125.175 49.902C126.078 49.2969 126.768 48.4062 127.246 47.2301C127.732 46.054 127.974 44.6136 127.974 42.9091ZM160.42 29.8182V56H155.051L144.632 40.8892H144.466V56H138.138V29.8182H143.584L153.888 44.9034H154.105V29.8182H160.42ZM195.9 39.304H189.507C189.422 38.6477 189.248 38.0554 188.983 37.527C188.719 36.9986 188.37 36.5469 187.935 36.1719C187.5 35.7969 186.985 35.5114 186.388 35.3153C185.8 35.1108 185.148 35.0085 184.432 35.0085C183.162 35.0085 182.067 35.3196 181.147 35.9418C180.235 36.5639 179.532 37.4631 179.037 38.6392C178.551 39.8153 178.309 41.2386 178.309 42.9091C178.309 44.6477 178.556 46.1051 179.05 47.2812C179.553 48.4489 180.256 49.331 181.159 49.9276C182.071 50.5156 183.15 50.8097 184.394 50.8097C185.093 50.8097 185.728 50.7202 186.299 50.5412C186.878 50.3622 187.385 50.1023 187.82 49.7614C188.263 49.4119 188.625 48.9901 188.907 48.4957C189.196 47.9929 189.397 47.4261 189.507 46.7955L195.9 46.8338C195.789 47.9929 195.452 49.1349 194.89 50.2599C194.336 51.3849 193.573 52.4119 192.601 53.3409C191.63 54.2614 190.445 54.9943 189.047 55.5398C187.658 56.0852 186.064 56.358 184.266 56.358C181.897 56.358 179.775 55.8381 177.9 54.7983C176.033 53.75 174.559 52.2244 173.476 50.2216C172.394 48.2187 171.853 45.7812 171.853 42.9091C171.853 40.0284 172.402 37.5866 173.502 35.5838C174.601 33.581 176.088 32.0597 177.963 31.0199C179.838 29.9801 181.939 29.4602 184.266 29.4602C185.851 29.4602 187.317 29.6818 188.664 30.125C190.01 30.5597 191.195 31.1989 192.218 32.0426C193.24 32.8778 194.071 33.9048 194.711 35.1236C195.35 36.3423 195.746 37.7358 195.9 39.304ZM199.521 56V29.8182H217.776V34.9574H205.849V40.3267H216.843V45.4787H205.849V50.8608H217.776V56H199.521ZM244.022 29.8182V56H238.653L228.234 40.8892H228.067V56H221.739V29.8182H227.185L237.489 44.9034H237.707V29.8182H244.022ZM247.145 34.9574V29.8182H269.274V34.9574H261.335V56H255.096V34.9574H247.145ZM272.364 56V29.8182H290.62V34.9574H278.692V40.3267H289.687V45.4787H278.692V50.8608H290.62V56H272.364ZM294.583 56V29.8182H305.398C307.359 29.8182 309.05 30.1719 310.474 30.8793C311.906 31.5781 313.009 32.5838 313.785 33.8963C314.56 35.2003 314.948 36.7472 314.948 38.5369C314.948 40.3523 314.552 41.8949 313.759 43.1648C312.967 44.4261 311.842 45.3892 310.384 46.054C308.927 46.7102 307.201 47.0384 305.207 47.0384H298.367V42.0526H304.031C304.985 42.0526 305.782 41.929 306.421 41.6818C307.069 41.4261 307.559 41.0426 307.891 40.5312C308.224 40.0114 308.39 39.3466 308.39 38.5369C308.39 37.7273 308.224 37.0582 307.891 36.5298C307.559 35.9929 307.069 35.5923 306.421 35.3281C305.773 35.0554 304.977 34.919 304.031 34.919H300.911V56H294.583ZM309.323 44.0341L315.843 56H308.94L302.548 44.0341H309.323Z" fill="#075CAB"/>
<defs>
<radialGradient id="paint0_radial_38_18" cx="0" cy="0" r="1" gradientUnits="userSpaceOnUse" gradientTransform="translate(372.581 22.0698) rotate(95.2339) scale(61.1853)">
<stop stop-color="white"/>
<stop offset="0.16" stop-color="#98B8DE"/>
<stop offset="0.3" stop-color="#648CC7"/>
<stop offset="0.56" stop-color="#1360AE"/>
<stop offset="0.87" stop-color="#015AAA"/>
<stop offset="1" stop-color="#004C8F"/>
</radialGradient>
<clipPath id="clip0_38_18">
<rect width="80" height="80" fill="white" transform="translate(327 3)"/>
</clipPath>
</defs>
</svg>
